<?xml version="1.0" standalone="no"?>
<!DOCTYPE svg PUBLIC "-//W3C//DTD SVG 20010904//EN"
 "http://www.w3.org/TR/2001/REC-SVG-20010904/DTD/svg10.dtd">
<svg version="1.0" xmlns="http://www.w3.org/2000/svg"
 width="600.000000pt" height="185.000000pt" viewBox="0 0 600.000000 185.000000"
 preserveAspectRatio="xMidYMid meet">

<g transform="translate(0.000000,185.000000) scale(0.100000,-0.100000)"
fill="#000000" stroke="none">
<path d="M405 1511 l-240 -140 -3 -120 c-1 -67 0 -121 3 -121 2 0 113 63 246
140 210 121 245 138 263 128 12 -6 121 -69 243 -140 122 -70 225 -128 228
-128 3 0 5 54 5 119 l0 119 -244 141 c-134 78 -248 141 -252 141 -5 0 -117
-63 -249 -139z"/>
<path d="M1144 1623 c8 -15 71 -126 140 -246 69 -120 126 -220 126 -222 0 -2
-63 -112 -140 -246 -77 -133 -140 -244 -140 -246 0 -1 54 -3 119 -3 l119 0
115 198 c63 108 127 220 143 248 l28 50 -141 245 -141 244 -121 3 -122 3 15
-28z"/>
<path d="M4100 1281 l0 -108 -51 13 c-110 29 -205 -29 -240 -145 -17 -58 -23
-220 -10 -297 21 -121 74 -186 166 -199 59 -9 100 1 140 36 34 30 34 30 45 9
16 -29 69 -50 127 -50 61 0 70 6 77 53 17 109 18 103 -9 115 l-25 12 0 335 0
335 -110 0 -110 0 0 -109z m8 -418 l3 -141 -33 -7 c-26 -6 -35 -3 -50 15 -15
18 -18 41 -18 132 0 132 7 150 58 146 l37 -3 3 -142z"/>
<path d="M2025 1358 c-3 -8 -4 -192 -3 -409 l3 -394 105 0 105 0 3 148 c2 134
4 148 20 145 12 -2 27 -40 57 -148 l40 -145 109 -3 c60 -1 113 1 117 5 5 5
-14 84 -43 175 l-51 167 30 34 c40 46 57 97 58 177 0 127 -45 210 -131 239
-24 8 -110 15 -226 18 -158 5 -189 3 -193 -9z m295 -208 c15 -15 20 -33 20
-73 0 -65 -15 -88 -60 -90 l-35 -2 -3 93 -3 92 31 0 c17 0 39 -9 50 -20z"/>
<path d="M4544 1359 c-9 -15 -152 -793 -147 -801 5 -10 174 -10 189 0 7 4 17
33 24 65 l11 57 42 1 c89 2 108 1 113 -4 4 -3 11 -32 18 -64 l11 -58 99 -3
c55 -1 103 1 107 5 8 8 -131 779 -145 801 -9 15 -312 16 -322 1z m170 -266
c20 -107 37 -236 32 -248 -6 -16 -81 -22 -90 -7 -6 11 37 282 45 282 4 0 10
-12 13 -27z"/>
<path d="M5535 1278 c-2 -7 -6 -33 -7 -58 -3 -44 -4 -45 -41 -48 l-38 -3 3
-77 c3 -75 4 -77 29 -80 l27 -3 4 -182 c4 -198 10 -223 61 -261 25 -19 42 -21
138 -20 61 1 111 3 113 5 2 2 6 41 10 87 l6 82 -39 0 c-73 0 -71 -3 -71 151
l0 139 50 0 c57 0 56 -2 64 92 l5 67 -57 3 -57 3 -3 58 -3 57 -95 0 c-67 0
-96 -4 -99 -12z"/>
<path d="M2855 1190 c-112 -16 -177 -83 -204 -208 -20 -98 -9 -225 26 -297 22
-43 72 -93 118 -118 33 -18 56 -22 135 -22 52 1 119 7 149 14 l54 14 -7 75
c-3 41 -8 77 -11 80 -2 3 -30 0 -61 -7 -32 -6 -79 -11 -105 -11 -39 0 -51 4
-68 26 -12 15 -21 37 -21 50 l0 24 150 0 150 0 2 63 c3 114 -3 161 -28 214
-21 44 -33 56 -77 77 -59 28 -129 37 -202 26z m100 -196 c10 -10 15 -29 13
-48 -3 -31 -4 -31 -58 -31 l-55 0 3 35 c2 19 8 41 14 48 15 17 64 15 83 -4z"/>
<path d="M3410 1189 c-41 -5 -100 -15 -130 -22 -62 -15 -59 -7 -40 -126 l12
-73 32 6 c169 35 201 32 201 -14 0 -21 -8 -25 -84 -41 -145 -32 -191 -76 -191
-186 0 -70 19 -126 52 -154 22 -20 79 -39 116 -39 31 0 92 26 118 51 l22 20
14 -20 c8 -11 28 -27 44 -36 30 -15 120 -20 141 -7 6 4 14 39 18 77 7 70 7 71
-20 83 l-26 12 3 183 c3 168 1 185 -17 217 -37 63 -122 85 -265 69z m88 -421
c2 -27 -3 -43 -17 -57 -28 -28 -47 -26 -67 4 -20 31 -7 70 28 85 39 15 53 8
56 -32z"/>
<path d="M5374 1191 c-23 -4 -54 -15 -69 -25 -25 -17 -29 -17 -37 -2 -7 13
-27 16 -104 16 l-94 0 2 -312 3 -313 105 0 105 0 3 200 c2 190 3 201 23 218
14 11 38 17 69 17 l47 0 7 95 c7 90 4 117 -12 114 -4 -1 -26 -5 -48 -8z"/>
<path d="M301 905 c-78 -134 -141 -248 -141 -252 0 -4 64 -118 142 -255 l142
-248 119 0 c101 0 118 2 114 15 -4 8 -67 121 -142 251 l-137 236 139 240 c76
133 139 245 141 249 2 5 -50 9 -116 9 l-120 0 -141 -245z"/>
<path d="M662 559 l3 -122 240 -138 c132 -76 246 -139 252 -139 16 0 485 270
495 284 4 6 7 62 7 124 0 96 -2 113 -15 108 -8 -3 -120 -67 -248 -141 -129
-74 -236 -135 -239 -135 -3 0 -114 63 -247 140 -133 77 -243 140 -246 140 -3
0 -3 -55 -2 -121z"/>
</g>
</svg>
